<?xml version="1.0" encoding="utf-8"?>
<!-- Generator: Adobe Illustrator 26.0.1, SVG Export Plug-In . SVG Version: 6.00 Build 0)  -->
<svg version="1.1" id="Layer_1" xmlns="http://www.w3.org/2000/svg" xmlns:xlink="http://www.w3.org/1999/xlink" x="0px" y="0px"
	 viewBox="0 0 529.3 285.5" style="enable-background:new 0 0 529.3 285.5;" xml:space="preserve">
<style type="text/css">
	.st0{opacity:5.000000e-02;}
	.st1{fill:#E7EDF2;}
	.st2{fill:#050507;}
	.st3{fill:#505056;}
	.st4{fill:#5C5C66;}
	.st5{opacity:0.31;}
	.st6{fill:#202023;}
	.st7{fill:#EDC74D;}
	.st8{fill:#F9DB69;}
	.st9{fill:#FFFFFF;}
	.st10{fill:#C1262E;}
	.st11{fill:#FB6034;}
	.st12{fill:#E7341F;}
	.st13{fill:#038239;}
	.st14{fill:#00AD50;}
	.st15{fill:#035B27;}
	.st16{fill:#85D3A5;}
	.st17{fill:#FEA77A;}
	.st18{fill:#077032;}
	.st19{fill:#00FF00;}
	.st20{fill:#E1EFF8;}
	.st21{fill:#F9FFFF;}
	.st22{fill:#414042;}
</style>
<g id="_404_error_image" transform="translate(-618.024 -340)">
	<g id="Group_802" transform="translate(618.024 340)" class="st0">
		<g id="Group_801">
			<path id="Rectangle_618" class="st1" d="M226.7,10.9h121.9c6.4,0,11.5,5.2,11.5,11.5l0,0c0,6.4-5.2,11.5-11.5,11.5H226.7
				c-6.4,0-11.5-5.2-11.5-11.5l0,0C215.1,16.1,220.3,10.9,226.7,10.9z"/>
			<path id="Rectangle_619" class="st1" d="M159.1,10.9h27.3c6.4,0,11.5,5.2,11.5,11.5l0,0c0,6.4-5.2,11.5-11.5,11.5h-27.3
				c-6.4,0-11.5-5.2-11.5-11.5l0,0C147.5,16.1,152.7,10.9,159.1,10.9z"/>
			<path id="Path_114" class="st1" d="M42.6,118.8h88.3c6.4,0,11.5,5.2,11.5,11.6c0,6.4-5.2,11.5-11.5,11.5H71.2
				c-6.4,0.2-11.4,5.5-11.2,11.9c0.2,6.2,5.2,11.2,11.5,11.2h42.3c-0.2,0-0.4,0-0.5,0.1h34.1c6.4,0,11.5,5.2,11.5,11.5
				c0,6.4-5.2,11.5-11.5,11.5h-5.2c-6.4,0.3-11.3,5.7-11,12c0.3,6.2,5.4,11,11.5,11h240.8c6.4,0,11.5-5.1,11.5-11.5
				c0-6.2-4.8-11.2-11-11.5h-65.9c-6.4,0-11.5-5.2-11.5-11.5c0-6.4,5.2-11.5,11.5-11.5H413c-0.2,0-0.4-0.1-0.5-0.1h42.3
				c6.4,0,11.5-5.2,11.5-11.6c0-6.2-5-11.3-11.2-11.5h-51.8c-6.4,0-11.5-5.2-11.6-11.5c0-6.4,5.2-11.5,11.5-11.6c0,0,0,0,0,0h80.8
				c-0.1,0-0.2,0-0.3,0c6.4,0,11.5-5.2,11.5-11.6c0-6.4-5.2-11.5-11.5-11.5H356.8c-6.4,0.1-11.6-5.1-11.6-11.4
				c-0.1-6.4,5.1-11.6,11.4-11.6c0.1,0,0.1,0,0.2,0h79c6.4,0,11.5-5.2,11.5-11.6c0-6.4-5.2-11.5-11.5-11.5H90.4
				c-6.4,0-11.5,5.2-11.5,11.6c0,6.4,5.2,11.5,11.5,11.5h88.3c6.4-0.1,11.6,5.1,11.6,11.4c0.1,6.4-5.1,11.6-11.4,11.6
				c-0.1,0-0.1,0-0.2,0H42.6c-6.4,0-11.5,5.2-11.6,11.5C31,113.6,36.2,118.8,42.6,118.8C42.6,118.8,42.6,118.8,42.6,118.8
				 M217.1,188.1h-23c-6.4,0-11.5-5.2-11.5-11.5c0-6.4,5.2-11.5,11.5-11.5l0,0h23c6.4,0,11.5,5.2,11.5,11.5
				C228.7,182.9,223.5,188.1,217.1,188.1z M257.8,95.7c-6.4,0.1-11.6-5.1-11.6-11.4c-0.1-6.4,5.1-11.6,11.4-11.6c0.1,0,0.1,0,0.2,0
				h45c6.4-0.1,11.6,5.1,11.6,11.4c0.1,6.4-5.1,11.6-11.4,11.6c-0.1,0-0.1,0-0.2,0H257.8z"/>
		</g>
		<path id="Rectangle_620" class="st1" d="M76.1,216.9h158.8c6.2,0,11.3,5.1,11.3,11.3l0,0c0,6.2-5.1,11.3-11.3,11.3H76.1
			c-6.2,0-11.3-5.1-11.3-11.3l0,0C64.8,222,69.9,216.9,76.1,216.9z"/>
		<path id="Rectangle_621" class="st1" d="M353.5,216.9h112.3c6.2,0,11.3,5.1,11.3,11.3l0,0c0,6.2-5.1,11.3-11.3,11.3H353.5
			c-6.2,0-11.3-5.1-11.3-11.3l0,0C342.2,222,347.3,216.9,353.5,216.9z"/>
		<path id="Rectangle_622" class="st1" d="M276.7,216.9h38.3c6.2,0,11.3,5.1,11.3,11.3l0,0c0,6.2-5.1,11.3-11.3,11.3h-38.3
			c-6.2,0-11.3-5.1-11.3-11.3l0,0C265.4,222,270.5,216.9,276.7,216.9z"/>
	</g>
	<ellipse id="Ellipse_20" class="st2" cx="878.4" cy="594.1" rx="190.3" ry="7.3"/>
	<g id="Group_803" transform="translate(949.384 456.936)">
		<path id="Path_115" class="st3" d="M87.4,78.9V49.3H53.8L54,78.9H27.7L66.8-3.5H31.9L-1.3,64.8l-8.4,17.3v24.7h63.5v30.5h33.7
			v-30.5h18V78.9L87.4,78.9z"/>
	</g>
	<path id="Path_116" class="st3" d="M772.8,453.5l-39.1,82.4H760l-0.2-29.7h33.7v29.7h18v27.9h-18v30.5h-33.7v-30.5h-63.5v-24.7
		l41.7-85.6L772.8,453.5z"/>
	<path id="Path_117" class="st3" d="M876.9,438.1c-39.3,0-60.7,27.8-60.7,78.4c0,16.3,2.2,30.3,6.6,41.7c9.1,24,27.5,36.9,54.2,36.9
		c15,0,27.4-4.2,37-12.2c1.7-1.4,3.3-2.9,4.7-4.5c1.5-1.6,2.9-3.3,4.2-5.1c0.6-0.9,1.3-1.8,1.8-2.7c8.1-12.7,12.4-30.1,12.7-51.7
		c0-0.8,0-1.5,0-2.3C937.4,466,915.8,438.1,876.9,438.1L876.9,438.1z M855.1,528.8c-0.2-3.8-0.3-7.9-0.3-12.3
		c0-35.6,6.4-50.1,22.1-50.1c13.9,0,20.5,11.8,21.7,39.9c0.1,3.2,0.2,6.6,0.2,10.2c0,35.3-6.4,50.1-21.9,50.1
		C863.2,566.7,856.5,555.3,855.1,528.8z"/>
	<path id="Path_119" class="st4" d="M936.1,496.6c-12.8,0-25.5-0.6-38.3,0.2c0.6,6.5,0.9,13.1,0.9,19.7c0,21.5-2.8,36.5-8.1,44.1
		c0.7,0.3,1.4,0.7,2.1,1.1c0.3,0.2,0.5,0.5,0.8,0.7c0.4,0.7,0.6,1.6,0.6,2.4c0.9,0.4,1.6,4.4,1.6,4.4c1.3-0.2,2.6-0.4,3.9-0.4
		c4.6-0.3,9.6-0.2,13.7-0.3c4.8-0.2,8.8-0.3,13.1-0.9c6.4-12.6,10.9-31.2,10.9-51.1C937.4,509.9,937,503.2,936.1,496.6L936.1,496.6z
		"/>
	<g id="Group_818" transform="translate(839.933 483.651)" class="st5">
		<g id="Group_816" transform="translate(0 62.135)">
			<g id="Group_804" transform="translate(42.503 39.86)">
				<path id="Rectangle_623" class="st6" d="M4.5-19.3h1.8c3.3,0,6,2.7,6,6v10.2c0,3.3-2.7,6-6,6H4.5c-3.3,0-6-2.7-6-6v-10.2
					C-1.5-16.6,1.2-19.3,4.5-19.3z"/>
				<path id="Rectangle_624" class="st6" d="M4.2-18L4.2-18c3.1,0,5.7,2.5,5.7,5.7v6.9c0,3.1-2.5,5.7-5.7,5.7l0,0
					C1,0.3-1.5-2.3-1.5-5.4v-6.9C-1.5-15.5,1-18,4.2-18z"/>
				<path id="Rectangle_625" class="st6" d="M1.4-10.6L1.4-10.6c0.6,0,1.1,0.5,1.1,1.1v3.8c0,0.6-0.5,1.1-1.1,1.1h0
					c-0.6,0-1.1-0.5-1.1-1.1v-3.8C0.2-10.1,0.7-10.6,1.4-10.6z"/>
			</g>
			<g id="Group_810">
				<g id="Group_806" transform="translate(74.765 .477)">
					<path id="Path_120" class="st6" d="M14.9-13.4l-1.5,1.2c0,0,2,1.2,0.4,3.2c-0.5,0.7-1.5,0.9-2.2,0.5c-0.1,0-0.1-0.1-0.1-0.1
						c-0.9-0.1-1.5-0.9-1.4-1.8c0-0.1,0-0.1,0-0.2c0.4-2.6,2.6-1.9,2.6-1.9l-0.1-1.9c0,0-3.4-0.8-4.1,2.3C7.8-8.9,9.8-7.5,9.8-7.5
						L11-7.4l0.8,0.7c0,0,2.4,0.6,4.2-2.1S14.9-13.4,14.9-13.4z"/>
					<path id="Path_121" class="st6" d="M8.2-7.1L8.8-9l4.9,2.3l-0.8,2.4L8.2-7.1z"/>
					<path id="Path_122" class="st6" d="M-2.1,2.5c0,0,8.3,0.1,10.1-8.1l4.3,1.9c0,0-3.3,15.9-16.3,14.4L-2.1,2.5z"/>
					<path id="Rectangle_626" class="st6" d="M-4,0.1l3.2,0.4l-1.5,11.9L-5.5,12L-4,0.1z"/>
					<path id="Path_123" class="st6" d="M6.4-5.6l6.9,3.4l0.9-2.6L7.5-8.4L6.4-5.6z"/>
					<g id="Group_805" transform="translate(6.09 12.674)">
						<path id="Path_124" class="st6" d="M-6.2-2.1c0.2,0,0.4-0.1,0.7-0.1l0.8-8.6c-0.2,0.1-0.5,0.1-0.7,0.2L-6.2-2.1z"/>
						<path id="Path_125" class="st6" d="M-2.8-11.7c-0.2,0.1-0.4,0.2-0.6,0.3l0.7,8.1c0.2-0.1,0.4-0.2,0.6-0.3L-2.8-11.7z"/>
						<path id="Path_126" class="st6" d="M1.2-16c-0.1,0.2-0.2,0.5-0.3,0.7L4.3-11c0.1-0.2,0.2-0.4,0.3-0.7L1.2-16z"/>
						<path id="Path_127" class="st6" d="M0.9-6c0.2-0.2,0.3-0.4,0.5-0.6l-1.9-6.8c-0.2,0.2-0.4,0.4-0.5,0.5L0.9-6z"/>
					</g>
				</g>
				<g id="Group_809">
					<path id="Path_128" class="st6" d="M11.1-7.9c0,0-2-7-2.9-6.4c-0.7,0.4-1.3,0.7-1.1,1.8c0.4,2.1,2.4,5.4,2.4,5.4L11.1-7.9z"/>
					<path id="Path_129" class="st6" d="M7.9-6.4c0,0-1.8-6.6-2.9-6.4c-0.1,0-0.2,0.1-0.2,0.2c-0.2,0.3-1.2,0.6-1,1.6
						C4.2-9,6.3-5.6,6.3-5.6L7.9-6.4z"/>
					<g id="Group_808" transform="translate(2.146 6.678)">
						<path id="Path_130" class="st6" d="M9.4-13.3l-0.7-1.9l-4.9,2.3l0.8,2.4L9.4-13.3z"/>
						<path id="Path_131" class="st6" d="M19.7-3.7c0,0-8.3,0.1-10.1-8.1L5.2-10c0,0,3.3,15.9,16.3,14.4L19.7-3.7z"/>
						<path id="Rectangle_627" class="st6" d="M23.1,5.9l-3.2,0.4L18.3-5.7l3.2-0.4L23.1,5.9z"/>
						<path id="Path_132" class="st6" d="M11.2-11.8L4.3-8.4L3.4-11l6.6-3.6L11.2-11.8z"/>
						<g id="Group_807" transform="translate(3.936 6.473)">
							<path id="Path_133" class="st6" d="M13.8-2.1c-0.2,0-0.4-0.1-0.7-0.1l-0.8-8.6c0.2,0.1,0.5,0.1,0.7,0.2L13.8-2.1z"/>
							<path id="Path_134" class="st6" d="M10.4-11.7c0.2,0.1,0.4,0.2,0.6,0.3l-0.7,8.1c-0.2-0.1-0.4-0.2-0.6-0.3L10.4-11.7z"/>
							<path id="Path_135" class="st6" d="M6.4-16c0.1,0.2,0.2,0.5,0.3,0.7L3.3-11c-0.1-0.2-0.2-0.4-0.3-0.7L6.4-16z"/>
							<path id="Path_136" class="st6" d="M6.7-6C6.5-6.2,6.3-6.4,6.1-6.6l1.9-6.8c0.2,0.2,0.4,0.4,0.5,0.5L6.7-6z"/>
						</g>
					</g>
				</g>
			</g>
			<path id="Rectangle_628" class="st6" d="M39-8.3h18.1v7.6H39V-8.3z"/>
			<g id="Group_811" transform="translate(22.854 11.983)">
				<path id="Path_137" class="st6" d="M6.9-12c0.1-2.1,1.9-3.8,4-3.8H40c2.1,0,3.9,1.7,4,3.8H6.9z"/>
				<path id="Path_138" class="st6" d="M49.4-13.2v3.7c0,13.4-10.9,24.2-24.3,24.3C11.8,14.7,0.9,3.9,0.9-9.5v-3.7H49.4z"/>
				<path id="Path_139" class="st6" d="M44.6-13.2H5.8v1.7C5.8-0.8,14.6,7.8,25.3,7.8c10.6-0.1,19.2-8.7,19.3-19.3L44.6-13.2z"/>
			</g>
			<path id="Path_140" class="st6" d="M65.5,11.7c0-0.4,0-0.7,0.2-1c1-1.4,1.7-2.9,2.1-4.6c0.1-0.8,0.9-1.4,1.7-1.2
				c0.8,0.1,1.4,0.9,1.3,1.7c-0.4,2.1-1.3,4.1-2.6,5.9c-0.5,0.7-1.4,0.9-2.1,0.4C65.8,12.5,65.6,12.1,65.5,11.7L65.5,11.7z"/>
			<g id="Group_815" transform="translate(35.203 19.814)">
				<g id="Group_812">
					<path id="Rectangle_629" class="st6" d="M8.7-15.1L8.7-15.1c0.7,0.7,0.6,1.9-0.1,2.6l-5.4,5C2.5-6.9,1.3-6.9,0.6-7.6l0,0
						C-0.1-8.4,0-9.5,0.7-10.2l5.4-5C6.8-15.9,8-15.8,8.7-15.1z"/>
					<path id="Rectangle_630" class="st6" d="M8.7-15.5L8.7-15.5c0.7,0.7,0.6,1.9-0.1,2.6l-5.4,5C2.5-7.3,1.3-7.3,0.6-8.1l0,0
						C-0.1-8.8,0-9.9,0.7-10.6l5.4-5C6.8-16.3,8-16.2,8.7-15.5z"/>
				</g>
				<g id="Group_813" transform="translate(9.319)">
					<path id="Rectangle_631" class="st6" d="M7.5-15.1L7.5-15.1c0.7,0.7,0.6,1.9-0.1,2.6l-5.4,5C1.3-6.9,0.2-6.9-0.5-7.6l0,0
						c-0.7-0.7-0.6-1.9,0.1-2.6l5.4-5C5.7-15.9,6.9-15.8,7.5-15.1z"/>
					<path id="Rectangle_632" class="st6" d="M7.5-15.5L7.5-15.5c0.7,0.7,0.6,1.9-0.1,2.6l-5.4,5C1.3-7.3,0.2-7.3-0.5-8.1l0,0
						c-0.7-0.7-0.6-1.9,0.1-2.6l5.4-5C5.7-16.3,6.9-16.2,7.5-15.5z"/>
				</g>
				<g id="Group_814" transform="translate(18.638)">
					<path id="Rectangle_633" class="st6" d="M6.4-15.1L6.4-15.1c0.7,0.7,0.6,1.9-0.1,2.6l-5.4,5C0.2-6.9-1-6.9-1.7-7.6l0,0
						c-0.7-0.7-0.6-1.9,0.1-2.6l5.4-5C4.5-15.9,5.7-15.8,6.4-15.1z"/>
					<path id="Rectangle_634" class="st6" d="M6.4-15.5L6.4-15.5c0.7,0.7,0.6,1.9-0.1,2.6l-5.4,5C0.2-7.3-1-7.3-1.7-8.1l0,0
						c-0.7-0.7-0.6-1.9,0.1-2.6l5.4-5C4.5-16.3,5.7-16.2,6.4-15.5z"/>
				</g>
			</g>
			<path id="Rectangle_635" class="st6" d="M39,24.8h17.9v3.1H39V24.8z"/>
		</g>
		<g id="Group_817" transform="translate(6.231)">
			<path id="Rectangle_636" class="st6" d="M74.7,19.4L74.7,19.4c3.3,0,6,2.7,6,6v2.5c0,3.3-2.7,6-6,6h0c-3.3,0-6-2.7-6-6v-2.5
				C68.7,22,71.4,19.4,74.7,19.4z"/>
			<path id="Rectangle_637" class="st6" d="M8.9,19.4L8.9,19.4c3.3,0,6,2.7,6,6v2.5c0,3.3-2.7,6-6,6h0c-3.3,0-6-2.7-6-6v-2.5
				C2.9,22,5.6,19.4,8.9,19.4z"/>
			<path id="Path_141" class="st6" d="M75,25.7c0,17.9-14.8,28.5-33.1,28.5S8.8,43.6,8.8,25.7S23.6-6.7,41.9-6.7S75,7.8,75,25.7z"/>
			<path id="Path_142" class="st6" d="M72.9,24.2c0,17.1-13.6,27.2-30.4,27.2S12,41.3,12,24.2S25.6-6.7,42.4-6.7S72.9,7.1,72.9,24.2
				z"/>
			<path id="Path_143" class="st6" d="M66.2,22.4c0,11.6-10.9,18.5-24.3,18.5S17.6,34,17.6,22.4s10.9-21,24.3-21
				S66.2,10.8,66.2,22.4z"/>
			<path id="Path_144" class="st6" d="M66.2,21.5c0,11.1-10.9,17.7-24.3,17.7s-24.3-6.6-24.3-17.7S28.5,1.4,41.9,1.4
				S66.2,10.4,66.2,21.5z"/>
			<path id="Path_145" class="st6" d="M59.4,15.1c-1,4.9-6.3,6.9-12.3,5.8c-6-1.1-10.2-5-9.3-9.9s6.6-8,12.5-6.9
				S60.3,10.2,59.4,15.1z"/>
			<path id="Path_146" class="st6" d="M63.8,9.9c-0.5-0.1-0.9-0.3-1.2-0.7c-1.3-1.8-3-3.3-5-4.4c-1-0.5-1.4-1.6-1-2.6
				c0.5-1,1.6-1.4,2.6-1c2.5,1.3,4.6,3.2,6.4,5.4c0.7,0.8,0.6,2.1-0.3,2.8C64.9,9.8,64.4,9.9,63.8,9.9L63.8,9.9z"/>
			<path id="Rectangle_638" class="st6" d="M25.5,20.7h5.7c0.9,0,1.7,0.8,1.7,1.7l0,0c0,0.9-0.8,1.7-1.7,1.7h-5.7
				c-0.9,0-1.7-0.8-1.7-1.7l0,0C23.8,21.5,24.6,20.7,25.5,20.7z"/>
			<path id="Rectangle_639" class="st6" d="M52.3,20.7H58c0.9,0,1.7,0.8,1.7,1.7l0,0c0,0.9-0.8,1.7-1.7,1.7h-5.7
				c-0.9,0-1.7-0.8-1.7-1.7l0,0C50.6,21.5,51.4,20.7,52.3,20.7z"/>
		</g>
		<path id="Path_147" class="st6" d="M48,30.6c3,0,5.4,1.7,5.4,3.8c0,0.5-0.4,0.9-0.9,0.9c-0.5,0-0.9-0.4-0.9-0.9
			c0-1.1-1.7-2.1-3.7-2.1c-2,0-3.7,1-3.7,2.1c0,0.5-0.4,0.9-0.9,0.9c-0.5,0-0.9-0.4-0.9-0.9C42.6,32.2,45,30.6,48,30.6z"/>
	</g>
	<g id="Group_838" transform="translate(839.96 484.73)">
		<g id="Group_836" transform="translate(0 62.171)">
			<g id="Group_819" transform="translate(41.397 39.825)">
				<path id="Rectangle_640" class="st7" d="M4.6-19.4h1.8c3.3,0,6,2.7,6,6v10.2c0,3.3-2.7,6-6,6H4.6c-3.3,0-6-2.7-6-6v-10.2
					C-1.4-16.7,1.3-19.4,4.6-19.4z"/>
				<path id="Rectangle_641" class="st8" d="M4.3-18.1L4.3-18.1c3.1,0,5.7,2.5,5.7,5.7v6.9c0,3.1-2.5,5.7-5.7,5.7l0,0
					c-3.1,0-5.7-2.5-5.7-5.7v-6.9C-1.4-15.6,1.2-18.1,4.3-18.1z"/>
				<path id="Rectangle_642" class="st9" d="M1.5-10.7L1.5-10.7c0.6,0,1.1,0.5,1.1,1.1v3.8c0,0.6-0.5,1.1-1.1,1.1h0
					c-0.6,0-1.1-0.5-1.1-1.1v-3.8C0.4-10.2,0.9-10.7,1.5-10.7z"/>
			</g>
			<g id="Group_830">
				<g id="Group_821" transform="translate(73.659 .441)">
					<path id="Path_148" class="st10" d="M15.1-13.5l-1.5,1.2c0,0,2,1.2,0.4,3.2c-0.5,0.7-1.5,0.9-2.2,0.5c-0.1,0-0.1-0.1-0.1-0.1
						c-0.9-0.1-1.5-0.9-1.4-1.8c0-0.1,0-0.1,0-0.2c0.4-2.6,2.6-1.9,2.6-1.9l-0.1-1.9c0,0-3.4-0.8-4.1,2.3s1.3,4.5,1.3,4.5l1.2,0.1
						l0.8,0.7c0,0,2.4,0.6,4.2-2.1C18-11.5,15.1-13.5,15.1-13.5L15.1-13.5z"/>
					<path id="Path_149" class="st11" d="M8.3-7.2L9-9.1l4.9,2.3L13-4.4L8.3-7.2z"/>
					<path id="Path_150" class="st11" d="M-1.9,2.4c0,0,8.3,0.1,10.1-8.1l4.3,1.9c0,0-3.3,15.9-16.3,14.4L-1.9,2.4z"/>
					<path id="Rectangle_643" class="st10" d="M-3.8,0l3.2,0.4l-1.5,11.9l-3.2-0.4L-3.8,0z"/>
					<path id="Path_151" class="st10" d="M6.6-5.7l6.9,3.4L14.3-5L7.7-8.5L6.6-5.7z"/>
					<g id="Group_820" transform="translate(6.09 12.674)">
						<path id="Path_152" class="st12" d="M-6.1-2.2c0.2,0,0.4-0.1,0.7-0.1l0.8-8.6c-0.2,0.1-0.5,0.1-0.7,0.2L-6.1-2.2z"/>
						<path id="Path_153" class="st12" d="M-2.6-11.8c-0.2,0.1-0.4,0.2-0.6,0.3l0.7,8.1c0.2-0.1,0.4-0.2,0.6-0.3L-2.6-11.8z"/>
						<path id="Path_154" class="st12" d="M1.3-16.1c-0.1,0.2-0.2,0.4-0.3,0.7l3.4,4.4c0.1-0.2,0.2-0.4,0.3-0.7L1.3-16.1z"/>
						<path id="Path_155" class="st12" d="M1.1-6.2c0.2-0.2,0.3-0.4,0.5-0.6l-1.9-6.8c-0.2,0.2-0.4,0.4-0.5,0.5L1.1-6.2z"/>
					</g>
				</g>
				<g id="Group_829">
					<path id="Path_156" class="st13" d="M10.1-8.1c0,0-1.8-6.6-2.9-6.4c-1.1,0.1,1.3,7.2,1.3,7.2L10.1-8.1z"/>
					<path id="Path_157" class="st13" d="M6.9-6.6c0,0-1.8-6.6-2.9-6.4c-1.1,0.1,1.3,7.2,1.3,7.2L6.9-6.6z"/>
					<g id="Group_828" transform="translate(1.04 6.642)">
						<path id="Path_158" class="st14" d="M9.6-13.4l-0.7-1.9L4-13l0.8,2.4L9.6-13.4z"/>
						<path id="Path_159" class="st14" d="M19.8-3.8c0,0-8.3,0.1-10.1-8.1l-4.3,1.9c0,0,3.3,15.9,16.3,14.4L19.8-3.8z"/>
						<path id="Rectangle_644" class="st13" d="M23.2,5.7L20,6.1L18.5-5.8l3.2-0.4L23.2,5.7z"/>
						<path id="Path_160" class="st15" d="M11.3-11.9L4.5-8.5l-0.9-2.6l6.6-3.6L11.3-11.9z"/>
						<g id="Group_827" transform="translate(3.936 6.473)">
							<g id="Group_826">
								<g id="Group_822" transform="translate(10.717 5.962)">
									<path id="Path_161" class="st13" d="M3.2-8.2C3-8.2,2.8-8.3,2.6-8.3l-0.8-8.6c0.2,0.1,0.5,0.1,0.7,0.2L3.2-8.2z"/>
								</g>
								<g id="Group_823" transform="translate(7.637 4.951)">
									<path id="Path_162" class="st13" d="M2.8-16.7c0.2,0.1,0.4,0.2,0.6,0.3L2.8-8.4C2.6-8.5,2.4-8.6,2.2-8.7L2.8-16.7z"/>
								</g>
								<g id="Group_824">
									<path id="Path_163" class="st13" d="M6.5-16.1c0.1,0.2,0.2,0.5,0.3,0.7l-3.4,4.4c-0.1-0.2-0.2-0.4-0.3-0.7L6.5-16.1z"/>
								</g>
								<g id="Group_825" transform="translate(3.627 2.931)">
									<path id="Path_164" class="st13" d="M3.2-9.1C3-9.3,2.8-9.5,2.7-9.7l1.9-6.8C4.8-16.3,5-16.1,5.1-16L3.2-9.1z"/>
								</g>
							</g>
						</g>
					</g>
				</g>
			</g>
			<path id="Rectangle_645" class="st13" d="M38-8.4h18.1v7.6H38V-8.4z"/>
			<g id="Group_831" transform="translate(21.748 11.947)">
				<path id="Path_165" class="st14" d="M7-12.2c0.1-2.1,1.9-3.8,4-3.8h29.1c2.1,0,3.9,1.7,4,3.8H7z"/>
				<path id="Path_166" class="st14" d="M49.6-13.4v3.7c0,13.4-10.9,24.2-24.3,24.3C11.9,14.6,1.1,3.7,1-9.7v-3.7H49.6z"/>
				<path id="Path_167" class="st16" d="M44.7-13.4H5.9v1.7c0,10.7,8.7,19.4,19.4,19.4c10.7,0,19.4-8.7,19.4-19.4L44.7-13.4z"/>
			</g>
			<path id="Path_168" class="st17" d="M64.5,11.5c0-0.4,0-0.7,0.2-1c1-1.4,1.7-2.9,2.1-4.6c0.1-0.8,0.9-1.4,1.7-1.3
				c0.8,0.1,1.4,0.9,1.3,1.7c-0.5,2.1-1.3,4.1-2.6,5.9c-0.5,0.7-1.4,0.9-2.1,0.4C64.8,12.4,64.6,12,64.5,11.5z"/>
			<g id="Group_835" transform="translate(34.096 19.778)">
				<g id="Group_832">
					<path id="Rectangle_646" class="st14" d="M8.8-15.2L8.8-15.2c0.7,0.7,0.6,1.9-0.1,2.6l-5.4,5C2.6-7,1.4-7,0.8-7.8l0,0
						c-0.7-0.7-0.6-1.9,0.1-2.6l5.4-5C7-16,8.1-16,8.8-15.2z"/>
					<path id="Rectangle_647" class="st13" d="M8.8-15.6L8.8-15.6c0.7,0.7,0.6,1.9-0.1,2.6l-5.4,5C2.6-7.4,1.4-7.4,0.8-8.2l0,0
						c-0.7-0.7-0.6-1.9,0.1-2.6l5.4-5C7-16.4,8.1-16.4,8.8-15.6z"/>
				</g>
				<g id="Group_833" transform="translate(9.319)">
					<path id="Rectangle_648" class="st14" d="M7.7-15.2L7.7-15.2c0.7,0.7,0.6,1.9-0.1,2.6l-5.4,5C1.5-7,0.3-7-0.4-7.8l0,0
						C-1.1-8.5-1-9.7-0.3-10.4l5.4-5C5.8-16,7-16,7.7-15.2z"/>
					<path id="Rectangle_649" class="st13" d="M7.7-15.6L7.7-15.6c0.7,0.7,0.6,1.9-0.1,2.6l-5.4,5C1.5-7.4,0.3-7.4-0.4-8.2l0,0
						c-0.7-0.7-0.6-1.9,0.1-2.6l5.4-5C5.8-16.4,7-16.4,7.7-15.6z"/>
				</g>
				<g id="Group_834" transform="translate(18.638)">
					<path id="Rectangle_650" class="st14" d="M6.5-15.2L6.5-15.2c0.7,0.7,0.6,1.9-0.1,2.6L1-7.7C0.3-7-0.9-7-1.5-7.8l0,0
						c-0.7-0.7-0.6-1.9,0.1-2.6l5.4-5C4.7-16,5.8-16,6.5-15.2z"/>
					<path id="Rectangle_651" class="st13" d="M6.5-15.6L6.5-15.6c0.7,0.7,0.6,1.9-0.1,2.6L1-8.1C0.3-7.4-0.9-7.4-1.5-8.2l0,0
						c-0.7-0.7-0.6-1.9,0.1-2.6l5.4-5C4.7-16.4,5.8-16.4,6.5-15.6z"/>
				</g>
			</g>
			<path id="Rectangle_652" class="st10" d="M38,24.6h17.9v3.1H38V24.6z"/>
		</g>
		<g id="Group_837" transform="translate(5.125)">
			<path id="Rectangle_653" class="st10" d="M74.8,19.2L74.8,19.2c3.3,0,6,2.7,6,6v2.5c0,3.3-2.7,6-6,6h0c-3.3,0-6-2.7-6-6v-2.5
				C68.8,21.9,71.5,19.2,74.8,19.2z"/>
			<path id="Rectangle_654" class="st18" d="M9.1,19.2L9.1,19.2c3.3,0,6,2.7,6,6v2.5c0,3.3-2.7,6-6,6h0c-3.3,0-6-2.7-6-6v-2.5
				C3.1,21.9,5.8,19.2,9.1,19.2z"/>
			<path id="Path_169" class="st13" d="M75.1,25.5c0,17.9-14.8,28.5-33.1,28.5S9,43.4,9,25.5S23.8-6.9,42-6.9S75.1,7.6,75.1,25.5z"
				/>
			<path id="Path_170" class="st19" d="M73,24.1c0,17.1-13.6,27.2-30.4,27.2S12.1,41.1,12.1,24.1S25.8-6.9,42.6-6.9S73,7,73,24.1z"
				/>
			<path id="Path_171" class="st16" d="M66.3,22.2c0,11.6-10.9,18.5-24.3,18.5s-24.3-6.9-24.3-18.5s10.9-21,24.3-21
				S66.3,10.6,66.3,22.2z"/>
			<path id="Path_172" class="st20" d="M66.3,21.4c0,11.1-10.9,17.7-24.3,17.7s-24.3-6.6-24.3-17.7S28.6,1.2,42,1.2
				S66.3,10.2,66.3,21.4L66.3,21.4z"/>
			<path id="Path_173" class="st21" d="M59.5,15c-1,4.9-6.3,6.9-12.3,5.8c-6-1.1-10.2-5-9.3-9.9s6.6-8,12.5-6.9S60.4,10.1,59.5,15
				L59.5,15z"/>
			<path id="Path_174" class="st17" d="M63.9,9.7C63.5,9.7,63,9.4,62.7,9c-1.3-1.8-3-3.3-5-4.4c-1-0.5-1.4-1.6-1-2.6
				c0.5-1,1.6-1.4,2.6-1c2.5,1.3,4.6,3.2,6.4,5.4c0.7,0.8,0.6,2.1-0.3,2.8C65.1,9.7,64.5,9.8,63.9,9.7L63.9,9.7z"/>
			<path id="Rectangle_655" class="st22" d="M25.7,20.6h5.7c0.9,0,1.7,0.8,1.7,1.7l0,0c0,0.9-0.8,1.7-1.7,1.7h-5.7
				c-0.9,0-1.7-0.8-1.7-1.7l0,0C24,21.3,24.7,20.6,25.7,20.6z"/>
			<path id="Rectangle_656" class="st22" d="M52.4,20.6h5.7c0.9,0,1.7,0.8,1.7,1.7l0,0c0,0.9-0.8,1.7-1.7,1.7h-5.7
				c-0.9,0-1.7-0.8-1.7-1.7l0,0C50.7,21.3,51.5,20.6,52.4,20.6z"/>
		</g>
		<path id="Path_175" class="st22" d="M47.1,30.4c3,0,5.4,1.7,5.4,3.8c0,0.5-0.4,0.9-0.9,0.9c-0.5,0-0.9-0.4-0.9-0.9
			c0-1.1-1.7-2.1-3.7-2.1c-2,0-3.7,1-3.7,2.1c0,0.5-0.4,0.9-0.9,0.9c-0.5,0-0.9-0.4-0.9-0.9C41.6,32.1,44,30.4,47.1,30.4z"/>
	</g>
	<path id="Path_176" class="st3" d="M931.1,475.7l-38.3,0.7c3.3,6.5,5.2,16.3,5.8,29.9c0.1,3.2,0.2,6.6,0.2,10.2
		c0,35.3-6.4,50.1-21.9,50.1c-5.8,0-10.4-2-13.8-6.4c-1.2,5.3-5.1,11.8-9.2,17.6l-3.2,12.1c7.6,3.4,16.3,5.2,26.1,5.2
		c15,0,27.4-4.2,37-12.2c1.7-1.4,3.3-2.9,4.7-4.5c1.5-1.6,2.9-3.3,4.2-5.1c0.6-0.9,1.3-1.8,1.8-2.7c8.1-12.7,12.4-30.1,12.7-51.7
		c0-0.8,0-1.5,0-2.3C937.4,500.6,935.3,487,931.1,475.7L931.1,475.7z"/>
</g>
</svg>
